<svg width="657.9px" height="122px" xmlns="http://www.w3.org/2000/svg" viewBox="-78.94687499999998 14 657.89375 122" style="background: rgba(0, 0, 0, 0)" preserveAspectRatio="xMidYMid"><defs><linearGradient id="editing-gradient-gradient" x1="0" x2="1" y1="0.5" y2="0.5" gradientUnits="objectBoundingBox"><stop offset="0" stop-color="#5ea2dd"></stop><stop offset="1" stop-color="#f781f7"></stop></linearGradient></defs><g transform="matrix(1,0,0,1,-2,4.5)"><g transform="matrix(1.4,0,0,1.4,-63.6,162.1)"><path d="M 9.5 -46.4 L -4.5 -46.4 L 3.6 -88.7 L 17.7 -88.7 L 9.5 -46.4 Z M 65.2 -45.2 L 65.2 -45.2 L 65.2 -45.2 Q 57.5 -45.2 57.5 -51.2 L 57.5 -51.2 L 57.5 -51.2 Q 57.5 -53.8 58.6 -58.9 L 58.6 -58.9 L 58.6 -58.9 Q 59.7 -64 60.1 -66 L 60.1 -66 L 60.1 -66 Q 61 -70.7 61 -72.2 L 61 -72.2 L 61 -72.2 Q 61 -75.4 58.5 -75.4 L 58.5 -75.4 L 58.5 -75.4 Q 56.9 -75.4 55.4 -73.2 L 55.4 -73.2 L 55.4 -73.2 Q 53.9 -71 53.2 -66.6 L 53.2 -66.6 L 49.2 -46.4 L 36.7 -45.2 L 40.2 -62.6 L 40.2 -62.6 Q 40.7 -65.4 41.3 -68.7 L 41.3 -68.7 L 41.3 -68.7 Q 41.8 -72 41.8 -72.5 L 41.8 -72.5 L 41.8 -72.5 Q 41.8 -75.4 39.6 -75.4 L 39.6 -75.4 L 39.6 -75.4 Q 38.1 -75.4 36.5 -73.3 L 36.5 -73.3 L 36.5 -73.3 Q 34.9 -71.1 34 -66.6 L 34 -66.6 L 30.1 -46.4 L 17.5 -45.2 L 24.2 -79.1 L 34.7 -80.4 L 33.6 -73.9 L 33.6 -73.9 Q 35.2 -77.3 38.3 -78.9 L 38.3 -78.9 L 38.3 -78.9 Q 41.4 -80.4 46.2 -80.4 L 46.2 -80.4 L 46.2 -80.4 Q 48.9 -80.4 50.7 -79 L 50.7 -79 L 50.7 -79 Q 52.5 -77.7 53.1 -75.5 L 53.1 -75.5 L 53.1 -75.5 Q 54.2 -77.7 57 -79 L 57 -79 L 57 -79 Q 59.8 -80.4 63.2 -80.4 L 63.2 -80.4 L 63.2 -80.4 Q 66.6 -80.4 68.3 -79.6 L 68.3 -79.6 L 68.3 -79.6 Q 70 -78.9 71 -77.7 L 71 -77.7 L 71 -77.7 Q 72.7 -75.4 72.7 -71.3 L 72.7 -71.3 L 72.7 -71.3 Q 72.7 -67.3 71 -58.9 L 71 -58.9 L 71 -58.9 Q 70.1 -54.8 70.1 -53.3 L 70.1 -53.3 L 70.1 -53.3 Q 70.1 -51.8 71 -50.9 L 71 -50.9 L 71 -50.9 Q 71.9 -50 73.1 -49.9 L 73.1 -49.9 L 73.1 -49.9 Q 72.5 -47.7 70.3 -46.4 L 70.3 -46.4 L 70.3 -46.4 Q 68.1 -45.2 65.2 -45.2 Z M 80.8 -48.4 L 80.8 -48.4 L 80.8 -48.4 Q 79.3 -50 78.7 -52.6 L 78.7 -52.6 L 78.7 -52.6 Q 78 -55.3 78 -59.6 L 78 -59.6 L 78 -59.6 Q 78 -63.8 79.5 -67.7 L 79.5 -67.7 L 79.5 -67.7 Q 80.9 -71.7 83.6 -74.5 L 83.6 -74.5 L 83.6 -74.5 Q 89.1 -80.4 98.2 -80.4 L 98.2 -80.4 L 98.2 -80.4 Q 101.5 -80.4 103.9 -79.3 L 103.9 -79.3 L 114.8 -80.4 L 110.1 -55.4 L 110.1 -55.4 Q 109.9 -54.6 109.9 -53.2 L 109.9 -53.2 L 109.9 -53.2 Q 109.9 -51.8 110.7 -50.9 L 110.7 -50.9 L 110.7 -50.9 Q 111.6 -50 112.9 -49.9 L 112.9 -49.9 L 112.9 -49.9 Q 112.2 -47.7 109.9 -46.4 L 109.9 -46.4 L 109.9 -46.4 Q 107.6 -45.2 104.9 -45.2 L 104.9 -45.2 L 104.9 -45.2 Q 102.3 -45.2 100.6 -46.1 L 100.6 -46.1 L 100.6 -46.1 Q 98.8 -47.1 98.3 -48.8 L 98.3 -48.8 L 98.3 -48.8 Q 97.3 -47.2 95.1 -46.2 L 95.1 -46.2 L 95.1 -46.2 Q 92.9 -45.2 90 -45.2 L 90 -45.2 L 90 -45.2 Q 87.1 -45.2 84.7 -45.9 L 84.7 -45.9 L 84.7 -45.9 Q 82.3 -46.7 80.8 -48.4 Z M 94.3 -74.3 L 94.3 -74.3 L 94.3 -74.3 Q 93.6 -73.2 93 -71.2 L 93 -71.2 L 93 -71.2 Q 92.3 -69.3 91.3 -64.1 L 91.3 -64.1 L 91.3 -64.1 Q 90.2 -58.9 90.2 -55.1 L 90.2 -55.1 L 90.2 -55.1 Q 90.2 -51.4 90.8 -50.3 L 90.8 -50.3 L 90.8 -50.3 Q 91.4 -49.3 92.4 -49.3 L 92.4 -49.3 L 92.4 -49.3 Q 94.4 -49.3 95.9 -51.2 L 95.9 -51.2 L 95.9 -51.2 Q 97.5 -53.2 98 -56.6 L 98 -56.6 L 101.4 -75.4 L 101.4 -75.4 Q 100.1 -76.5 98.5 -76.5 L 98.5 -76.5 L 98.5 -76.5 Q 96.9 -76.5 96 -76 L 96 -76 L 96 -76 Q 95.1 -75.5 94.3 -74.3 Z M 122.5 -73.2 L 122.5 -73.2 L 122.5 -73.2 Q 124.7 -76.3 128 -78.3 L 128 -78.3 L 128 -78.3 Q 131.3 -80.4 135.3 -80.4 L 135.3 -80.4 L 135.3 -80.4 Q 139.4 -80.4 141.3 -79.1 L 141.3 -79.1 L 153.8 -80.4 L 149.5 -55.8 L 149.5 -55.8 Q 147.2 -43.2 142.5 -38.3 L 142.5 -38.3 L 142.5 -38.3 Q 138 -33.6 129.1 -33.6 L 129.1 -33.6 L 129.1 -33.6 Q 122.4 -33.6 118.6 -35.7 L 118.6 -35.7 L 118.6 -35.7 Q 114.7 -37.9 114.7 -41.4 L 114.7 -41.4 L 114.7 -41.4 Q 114.7 -44 116.7 -45.5 L 116.7 -45.5 L 116.7 -45.5 Q 118.7 -47 121.8 -47 L 121.8 -47 L 121.8 -47 Q 124.5 -47 126.5 -45.8 L 126.5 -45.8 L 126.5 -45.8 Q 127.7 -45.2 128.3 -44.3 L 128.3 -44.3 L 128.3 -44.3 Q 126.8 -43 126.8 -40.9 L 126.8 -40.9 L 126.8 -40.9 Q 126.8 -38.1 129.4 -38.1 L 129.4 -38.1 L 129.4 -38.1 Q 133.7 -38.1 136.1 -48.2 L 136.1 -48.2 L 136.1 -48.2 Q 136.8 -51 137.4 -53.7 L 137.4 -53.7 L 137.4 -53.7 Q 134.5 -50.2 128 -50.2 L 128 -50.2 L 128 -50.2 Q 123.4 -50.2 120.8 -52.4 L 120.8 -52.4 L 120.8 -52.4 Q 118.2 -54.6 118.2 -59.7 L 118.2 -59.7 L 118.2 -59.7 Q 118.2 -62.9 119.3 -66.5 L 119.3 -66.5 L 119.3 -66.5 Q 120.4 -70.1 122.5 -73.2 Z M 130.9 -59.5 L 130.9 -59.5 L 130.9 -59.5 Q 130.9 -55.1 133.1 -55.1 L 133.1 -55.1 L 133.1 -55.1 Q 134.6 -55.1 136.1 -56.8 L 136.1 -56.8 L 136.1 -56.8 Q 137.3 -58.1 137.7 -60.1 L 137.7 -60.1 L 141 -76.6 L 141 -76.6 Q 140.7 -76.6 140.3 -76.8 L 140.3 -76.8 L 140.3 -76.8 Q 139.7 -77 138.9 -77 L 138.9 -77 L 138.9 -77 Q 135 -77 132.7 -70.6 L 132.7 -70.6 L 132.7 -70.6 Q 130.9 -65.6 130.9 -59.5 Z M 182.3 -57.3 L 182.3 -57.3 L 182.3 -57.3 Q 183.9 -56.2 183.9 -53.8 L 183.9 -53.8 L 183.9 -53.8 Q 183.9 -51.4 182.6 -49.8 L 182.6 -49.8 L 182.6 -49.8 Q 181.4 -48.3 179.4 -47.3 L 179.4 -47.3 L 179.4 -47.3 Q 175.3 -45.2 170.9 -45.2 L 170.9 -45.2 L 170.9 -45.2 Q 166.5 -45.2 163.9 -46.1 L 163.9 -46.1 L 163.9 -46.1 Q 161.3 -47.1 159.6 -48.9 L 159.6 -48.9 L 159.6 -48.9 Q 156.2 -52.3 156.2 -58.5 L 156.2 -58.5 L 156.2 -58.5 Q 156.2 -68.1 161.5 -74 L 161.5 -74 L 161.5 -74 Q 167.1 -80.4 176.9 -80.4 L 176.9 -80.4 L 176.9 -80.4 Q 183 -80.4 186 -77.8 L 186 -77.8 L 186 -77.8 Q 188.2 -75.9 188.2 -72.7 L 188.2 -72.7 L 188.2 -72.7 Q 188.2 -61.5 168.7 -61.5 L 168.7 -61.5 L 168.7 -61.5 Q 168.5 -59.8 168.5 -58.4 L 168.5 -58.4 L 168.5 -58.4 Q 168.5 -55.5 169.8 -54.3 L 169.8 -54.3 L 169.8 -54.3 Q 171.1 -53.2 173.5 -53.2 L 173.5 -53.2 L 173.5 -53.2 Q 176 -53.2 178.6 -54.3 L 178.6 -54.3 L 178.6 -54.3 Q 181.2 -55.5 182.3 -57.3 Z M 169.2 -64.2 L 169.2 -64.2 L 169.2 -64.2 Q 173.7 -64.2 176.4 -67 L 176.4 -67 L 176.4 -67 Q 179 -69.7 179 -74 L 179 -74 L 179 -74 Q 179 -75.5 178.4 -76.3 L 178.4 -76.3 L 178.4 -76.3 Q 177.9 -77.1 176.8 -77.1 L 176.8 -77.1 L 176.8 -77.1 Q 175.7 -77.1 174.8 -76.7 L 174.8 -76.7 L 174.8 -76.7 Q 173.9 -76.3 172.9 -74.9 L 172.9 -74.9 L 172.9 -74.9 Q 170.5 -71.7 169.2 -64.2 Z M 209.5 -68.9 L 209.5 -68.9 L 209.5 -68.9 Q 210.4 -71.3 210.4 -73.3 L 210.4 -73.3 L 210.4 -73.3 Q 210.4 -77.1 207.3 -77.1 L 207.3 -77.1 L 207.3 -77.1 Q 205.7 -77.1 204.4 -75.7 L 204.4 -75.7 L 204.4 -75.7 Q 203.1 -74.2 203.1 -72.4 L 203.1 -72.4 L 203.1 -72.4 Q 203.1 -71.1 204.1 -70.1 L 204.1 -70.1 L 204.1 -70.1 Q 205.6 -68.7 209.4 -66.4 L 209.4 -66.4 L 209.4 -66.4 Q 213.2 -64.1 214.6 -62.2 L 214.6 -62.2 L 214.6 -62.2 Q 216 -60.3 216 -57.7 L 216 -57.7 L 216 -57.7 Q 216 -55.1 214.8 -52.8 L 214.8 -52.8 L 214.8 -52.8 Q 213.5 -50.4 211.3 -48.7 L 211.3 -48.7 L 211.3 -48.7 Q 206.5 -45.2 198.8 -45.2 L 198.8 -45.2 L 198.8 -45.2 Q 194.7 -45.2 191.5 -47.3 L 191.5 -47.3 L 191.5 -47.3 Q 188.3 -49.4 188.3 -51.9 L 188.3 -51.9 L 188.3 -51.9 Q 188.3 -54.4 190.1 -55.9 L 190.1 -55.9 L 190.1 -55.9 Q 191.9 -57.4 194.6 -57.4 L 194.6 -57.4 L 194.6 -57.4 Q 197.3 -57.4 199 -56.4 L 199 -56.4 L 199 -56.4 Q 198.1 -54.2 198.1 -52.8 L 198.1 -52.8 L 198.1 -52.8 Q 198.1 -48.6 201.7 -48.6 L 201.7 -48.6 L 201.7 -48.6 Q 203.2 -48.6 204.3 -49.6 L 204.3 -49.6 L 204.3 -49.6 Q 205.3 -50.5 205.3 -52.2 L 205.3 -52.2 L 205.3 -52.2 Q 205.3 -55.5 199.8 -58.9 L 199.8 -58.9 L 199.8 -58.9 Q 195.3 -61.9 194.3 -63 L 194.3 -63 L 194.3 -63 Q 192.6 -65.1 192.6 -67.6 L 192.6 -67.6 L 192.6 -67.6 Q 192.6 -70.2 193.8 -72.6 L 193.8 -72.6 L 193.8 -72.6 Q 195 -75 197.2 -76.8 L 197.2 -76.8 L 197.2 -76.8 Q 201.9 -80.4 210 -80.4 L 210 -80.4 L 210 -80.4 Q 214.2 -80.4 216.7 -78.7 L 216.7 -78.7 L 216.7 -78.7 Q 219.1 -77 219.1 -74.2 L 219.1 -74.2 L 219.1 -74.2 Q 219.1 -71.4 217.4 -69.8 L 217.4 -69.8 L 217.4 -69.8 Q 215.7 -68.2 212.7 -68.2 L 212.7 -68.2 L 212.7 -68.2 Q 210.5 -68.2 209.5 -68.9 Z M 260.6 -67 L 273.5 -68.2 L 273.5 -68.2 Q 268.9 -58.1 268.9 -46.4 L 268.9 -46.4 L 268.9 -46.4 Q 267.2 -45.2 264.7 -45.2 L 264.7 -45.2 L 264.7 -45.2 Q 262.1 -45.2 260.5 -46.3 L 260.5 -46.3 L 260.5 -46.3 Q 258.9 -47.5 258.6 -48.7 L 258.6 -48.7 L 258.6 -48.7 Q 257 -47.1 254.4 -46.1 L 254.4 -46.1 L 254.4 -46.1 Q 251.8 -45.2 249.1 -45.2 L 249.1 -45.2 L 249.1 -45.2 Q 246.3 -45.2 243.9 -46.1 L 243.9 -46.1 L 243.9 -46.1 Q 241.5 -46.9 239.7 -48.9 L 239.7 -48.9 L 239.7 -48.9 Q 235.6 -53.3 235.6 -61.5 L 235.6 -61.5 L 235.6 -61.5 Q 235.6 -74.3 242.4 -82 L 242.4 -82 L 242.4 -82 Q 249.5 -90 261.9 -90 L 261.9 -90 L 261.9 -90 Q 270.6 -90 273.6 -85.5 L 273.6 -85.5 L 273.6 -85.5 Q 274.6 -84.1 274.6 -82.4 L 274.6 -82.4 L 274.6 -82.4 Q 274.6 -80.7 273.9 -79.2 L 273.9 -79.2 L 273.9 -79.2 Q 273.1 -77.8 272 -76.6 L 272 -76.6 L 272 -76.6 Q 269.2 -74.1 265.8 -74.1 L 265.8 -74.1 L 265.8 -74.1 Q 264.5 -74.1 263.2 -74.5 L 263.2 -74.5 L 263.2 -74.5 Q 263.5 -76.5 263.5 -78.7 L 263.5 -78.7 L 263.5 -78.7 Q 263.5 -80.9 263.3 -82 L 263.3 -82 L 263.3 -82 Q 263.1 -83 262.8 -83.8 L 262.8 -83.8 L 262.8 -83.8 Q 261.9 -85.5 260.1 -85.5 L 260.1 -85.5 L 260.1 -85.5 Q 258.3 -85.5 256.3 -83.6 L 256.3 -83.6 L 256.3 -83.6 Q 254.3 -81.6 252.7 -78.4 L 252.7 -78.4 L 252.7 -78.4 Q 249.1 -71.3 249.1 -62.6 L 249.1 -62.6 L 249.1 -62.6 Q 249.1 -58.7 250.7 -55.8 L 250.7 -55.8 L 250.7 -55.8 Q 252.3 -52.8 255.3 -52.8 L 255.3 -52.8 L 255.3 -52.8 Q 256.3 -52.8 257.2 -53.3 L 257.2 -53.3 L 257.2 -53.3 Q 258.2 -53.8 258.5 -54.2 L 258.5 -54.2 L 260.6 -67 Z M 279.4 -48.4 L 279.4 -48.4 L 279.4 -48.4 Q 277.9 -50 277.3 -52.6 L 277.3 -52.6 L 277.3 -52.6 Q 276.6 -55.3 276.6 -59.6 L 276.6 -59.6 L 276.6 -59.6 Q 276.6 -63.8 278.1 -67.7 L 278.1 -67.7 L 278.1 -67.7 Q 279.5 -71.7 282.2 -74.5 L 282.2 -74.5 L 282.2 -74.5 Q 287.7 -80.4 296.8 -80.4 L 296.8 -80.4 L 296.8 -80.4 Q 300.1 -80.4 302.4 -79.3 L 302.4 -79.3 L 313.4 -80.4 L 308.7 -55.4 L 308.7 -55.4 Q 308.5 -54.6 308.5 -53.2 L 308.5 -53.2 L 308.5 -53.2 Q 308.5 -51.8 309.3 -50.9 L 309.3 -50.9 L 309.3 -50.9 Q 310.2 -50 311.5 -49.9 L 311.5 -49.9 L 311.5 -49.9 Q 310.8 -47.7 308.5 -46.4 L 308.5 -46.4 L 308.5 -46.4 Q 306.2 -45.2 303.5 -45.2 L 303.5 -45.2 L 303.5 -45.2 Q 300.9 -45.2 299.1 -46.1 L 299.1 -46.1 L 299.1 -46.1 Q 297.4 -47.1 296.9 -48.8 L 296.9 -48.8 L 296.9 -48.8 Q 295.9 -47.2 293.7 -46.2 L 293.7 -46.2 L 293.7 -46.2 Q 291.5 -45.2 288.6 -45.2 L 288.6 -45.2 L 288.6 -45.2 Q 285.7 -45.2 283.3 -45.9 L 283.3 -45.9 L 283.3 -45.9 Q 280.9 -46.7 279.4 -48.4 Z M 292.9 -74.3 L 292.9 -74.3 L 292.9 -74.3 Q 292.2 -73.2 291.6 -71.2 L 291.6 -71.2 L 291.6 -71.2 Q 290.9 -69.3 289.9 -64.1 L 289.9 -64.1 L 289.9 -64.1 Q 288.8 -58.9 288.8 -55.1 L 288.8 -55.1 L 288.8 -55.1 Q 288.8 -51.4 289.4 -50.3 L 289.4 -50.3 L 289.4 -50.3 Q 290 -49.3 291 -49.3 L 291 -49.3 L 291 -49.3 Q 293 -49.3 294.5 -51.2 L 294.5 -51.2 L 294.5 -51.2 Q 296 -53.2 296.6 -56.6 L 296.6 -56.6 L 300 -75.4 L 300 -75.4 Q 298.7 -76.5 297.1 -76.5 L 297.1 -76.5 L 297.1 -76.5 Q 295.5 -76.5 294.6 -76 L 294.6 -76 L 294.6 -76 Q 293.7 -75.5 292.9 -74.3 Z M 332.1 -50 L 332.1 -50 L 332.1 -50 Q 330.2 -45.2 323.8 -45.2 L 323.8 -45.2 L 323.8 -45.2 Q 320.6 -45.2 318.6 -47.4 L 318.6 -47.4 L 318.6 -47.4 Q 316.9 -49.3 316.9 -51.4 L 316.9 -51.4 L 316.9 -51.4 Q 316.9 -56.2 319.1 -66.7 L 319.1 -66.7 L 323.8 -91.2 L 336.8 -92.5 L 330.6 -60.1 L 330.6 -60.1 Q 329.5 -55.4 329.5 -53.7 L 329.5 -53.7 L 329.5 -53.7 Q 329.5 -50.1 332.1 -50 Z M 352.9 -50 L 352.9 -50 L 352.9 -50 Q 350.9 -45.2 344.6 -45.2 L 344.6 -45.2 L 344.6 -45.2 Q 341.4 -45.2 339.3 -47.4 L 339.3 -47.4 L 339.3 -47.4 Q 337.6 -49.3 337.6 -51.4 L 337.6 -51.4 L 337.6 -51.4 Q 337.6 -56.2 339.9 -66.7 L 339.9 -66.7 L 344.6 -91.2 L 357.5 -92.5 L 351.3 -60.1 L 351.3 -60.1 Q 350.3 -55.4 350.3 -53.7 L 350.3 -53.7 L 350.3 -53.7 Q 350.3 -50.1 352.9 -50 Z M 384.2 -57.3 L 384.2 -57.3 L 384.2 -57.3 Q 385.8 -56.2 385.8 -53.8 L 385.8 -53.8 L 385.8 -53.8 Q 385.8 -51.4 384.6 -49.8 L 384.6 -49.8 L 384.6 -49.8 Q 383.4 -48.3 381.4 -47.3 L 381.4 -47.3 L 381.4 -47.3 Q 377.3 -45.2 372.9 -45.2 L 372.9 -45.2 L 372.9 -45.2 Q 368.5 -45.2 365.9 -46.1 L 365.9 -46.1 L 365.9 -46.1 Q 363.3 -47.1 361.6 -48.9 L 361.6 -48.9 L 361.6 -48.9 Q 358.2 -52.3 358.2 -58.5 L 358.2 -58.5 L 358.2 -58.5 Q 358.2 -68.1 363.4 -74 L 363.4 -74 L 363.4 -74 Q 369.1 -80.4 378.9 -80.4 L 378.9 -80.4 L 378.9 -80.4 Q 384.9 -80.4 387.9 -77.8 L 387.9 -77.8 L 387.9 -77.8 Q 390.2 -75.9 390.2 -72.7 L 390.2 -72.7 L 390.2 -72.7 Q 390.2 -61.5 370.7 -61.5 L 370.7 -61.5 L 370.7 -61.5 Q 370.5 -59.8 370.5 -58.4 L 370.5 -58.4 L 370.5 -58.4 Q 370.5 -55.5 371.8 -54.3 L 371.8 -54.3 L 371.8 -54.3 Q 373.1 -53.2 375.5 -53.2 L 375.5 -53.2 L 375.5 -53.2 Q 378 -53.2 380.6 -54.3 L 380.6 -54.3 L 380.6 -54.3 Q 383.1 -55.5 384.2 -57.3 Z M 371.2 -64.2 L 371.2 -64.2 L 371.2 -64.2 Q 375.7 -64.2 378.3 -67 L 378.3 -67 L 378.3 -67 Q 381 -69.7 381 -74 L 381 -74 L 381 -74 Q 381 -75.5 380.4 -76.3 L 380.4 -76.3 L 380.4 -76.3 Q 379.9 -77.1 378.8 -77.1 L 378.8 -77.1 L 378.8 -77.1 Q 377.7 -77.1 376.8 -76.7 L 376.8 -76.7 L 376.8 -76.7 Q 375.9 -76.3 374.9 -74.9 L 374.9 -74.9 L 374.9 -74.9 Q 372.5 -71.7 371.2 -64.2 Z M 412.4 -64.4 L 412.4 -64.4 L 412.4 -64.4 Q 414.7 -68.5 414.7 -72.7 L 414.7 -72.7 L 414.7 -72.7 Q 414.7 -75.4 412.7 -75.4 L 412.7 -75.4 L 412.7 -75.4 Q 411.2 -75.4 409.6 -72.8 L 409.6 -72.8 L 409.6 -72.8 Q 407.9 -70.2 407.4 -66.8 L 407.4 -66.8 L 404.1 -46.4 L 390.8 -45.2 L 397.4 -79.1 L 407.9 -80.4 L 406.8 -73.9 L 406.8 -73.9 Q 409.9 -80.4 416.9 -80.4 L 416.9 -80.4 L 416.9 -80.4 Q 420.7 -80.4 422.7 -78.4 L 422.7 -78.4 L 422.7 -78.4 Q 424.7 -76.5 424.7 -72.6 L 424.7 -72.6 L 424.7 -72.6 Q 424.7 -68.6 422.1 -66.1 L 422.1 -66.1 L 422.1 -66.1 Q 419.5 -63.7 415.1 -63.7 L 415.1 -63.7 L 415.1 -63.7 Q 413.2 -63.7 412.4 -64.4 Z M 446.1 -53.7 L 446.1 -53.7 L 446.1 -53.7 Q 442.7 -50.2 436.7 -50.2 L 436.7 -50.2 L 436.7 -50.2 Q 429 -50.2 427.4 -55.8 L 427.4 -55.8 L 427.4 -55.8 Q 426.9 -57.4 426.9 -59.3 L 426.9 -59.3 L 426.9 -59.3 Q 426.9 -61.2 427.3 -63.1 L 427.3 -63.1 L 430.3 -79.1 L 443.3 -80.4 L 439.8 -61.7 L 439.8 -61.7 Q 439.7 -60.9 439.5 -60 L 439.5 -60 L 439.5 -60 Q 439.3 -59.1 439.3 -58.2 L 439.3 -58.2 L 439.3 -58.2 Q 439.3 -57.3 439.6 -56.6 L 439.6 -56.6 L 439.6 -56.6 Q 439.9 -56 440.4 -55.7 L 440.4 -55.7 L 440.4 -55.7 Q 441.1 -55.1 442.5 -55.1 L 442.5 -55.1 L 442.5 -55.1 Q 443.9 -55.1 445.1 -56.8 L 445.1 -56.8 L 445.1 -56.8 Q 446.3 -58.5 446.8 -61.3 L 446.8 -61.3 L 450.3 -79.1 L 463 -80.4 L 458.2 -55.2 L 458.2 -55.2 Q 455.8 -42.9 450.9 -38.1 L 450.9 -38.1 L 450.9 -38.1 Q 448.4 -35.6 445.2 -34.6 L 445.2 -34.6 L 445.2 -34.6 Q 442 -33.6 437.8 -33.6 L 437.8 -33.6 L 437.8 -33.6 Q 431.1 -33.6 427.2 -35.7 L 427.2 -35.7 L 427.2 -35.7 Q 423.4 -37.8 423.4 -41.3 L 423.4 -41.3 L 423.4 -41.3 Q 423.4 -43.9 425.4 -45.4 L 425.4 -45.4 L 425.4 -45.4 Q 427.4 -46.9 430.4 -46.9 L 430.4 -46.9 L 430.4 -46.9 Q 433.1 -46.9 435.2 -45.8 L 435.2 -45.8 L 435.2 -45.8 Q 436.4 -45.1 437 -44.2 L 437 -44.2 L 437 -44.2 Q 435.5 -42.9 435.5 -40.8 L 435.5 -40.8 L 435.5 -40.8 Q 435.5 -38 438.1 -38 L 438.1 -38 L 438.1 -38 Q 442.3 -38 444.7 -47.7 L 444.7 -47.7 L 444.7 -47.7 Q 445.4 -50.6 446.1 -53.7 Z" fill="url(#editing-gradient-gradient)"></path></g></g><style>text {
  font-size: 64px;
  font-family: Arial Black;
  dominant-baseline: central;
  text-anchor: middle;
}</style></svg>